<svg xmlns="http://www.w3.org/2000/svg" width="340" height="90" preserveAspectRatio="xMinYMid" aria-hidden="true"><path d="M40.65 59.87a.46.46 0 01-.32-.42v-.17h-.18a.54.54 0 01-.35-.18.76.76 0 00.74-.1l.1.14a.43.43 0 00-.13.28l.11.21.14-.16a.69.69 0 01.32-.16h.05l.17.13a1.13 1.13 0 00.44-.16h.1a.43.43 0 00.63.41.36.36 0 01-.31.16.49.49 0 01-.43-.32 1.11 1.11 0 01-.43.13.34.34 0 01-.28-.16c-.06 0-.38.17-.28.39zm.21-1H41a1.17 1.17 0 00.8-.38l-.06.17v.05a1.15 1.15 0 00.54-.17 1.18 1.18 0 00.55-.82l.15-.1H43v-.05-.28a2.54 2.54 0 010-.39.45.45 0 010-.26v-.07a.53.53 0 00-.08.33 2.68 2.68 0 000 .4 2.51 2.51 0 010 .26l-.06.1-.11.07a1.11 1.11 0 01-.51.79 1.21 1.21 0 01-.4.15v-.23h-.08a1.1 1.1 0 01-.76.37v-.5l-.06-.15-.17.09v-.15c0-.19-.1-.46-.1-.71a.47.47 0 01.26-.47.62.62 0 00.27-.4v-.37h-.07l-.06.13a.76.76 0 01-.27.53.57.57 0 00-.31.55c0 .27.1.55.1.71v.09h-.07v.05a.38.38 0 00.2.06l.2-.07v.27a.51.51 0 01-.06.28m5-3.63a.45.45 0 00-.2.56A1.53 1.53 0 0146.2 57c-.15.67-.72 1-.71 1.32.25 0 .39 0 .44.25a.34.34 0 01-.2.6c0-.1.22-.07.11-.33s-.43 0-.45.25a8.61 8.61 0 00.44 2.6 1 1 0 01-.89 1.18.92.92 0 01-.82-.47c0 .17-.12 1.43.49 1.56a.41.41 0 00.39-.1.46.46 0 01-.41.47c-.21.2-.21.61.23.44a.39.39 0 01-.65.11.62.62 0 01-.58.71c.07.15.15.73-.22.72a.43.43 0 00-.25-.47.21.21 0 01-.26.07c-.11-.07-.06.68-.58.82-.35-.42.19-.5.15-.92a1.33 1.33 0 00-1 .43c-.39-.49.29-.74.68-.71a.36.36 0 00-.5-.14c0-.08 0-.42.55-.35.27.1.19.28.36.28a3.7 3.7 0 01.48-.74l-.47-.37s-.46.69-.82.19a.4.4 0 00.56-.4.34.34 0 01-.44-.51c.12.52.45.2.41 0a1.93 1.93 0 01.06-.68v-.09c-.69-.27-1.82.62-1 1.21-.28.23-.48-.14-.57-.28-.09 0-.13.17-.07.42-.42-.15-.34-.76-.94-.94a1.12 1.12 0 01-.71.41 1 1 0 00.17-.9 1.59 1.59 0 00-.94.42.59.59 0 01.63-.68c-.44-.66-.77-.16-.77-.16-.15-.48.6-.77.9-.21.26-.14 0-.51 0-.51a.48.48 0 01.33.68 1.94 1.94 0 01.74.38.58.58 0 01.24-.66.7.7 0 01-.68-.52.62.62 0 00.6.18.45.45 0 01-.28-.4.31.31 0 01.62-.16c-.39-.16-.36.37 0 .37a4.6 4.6 0 01.65-.22 15.06 15.06 0 001.53.27 3.13 3.13 0 00-2.47-.94 1 1 0 01-.84-.32 1.36 1.36 0 00-.27.19.43.43 0 00-.41-.24c-.22 0-.32.54-.72.31.09 0 .46-.21.08-.49a.55.55 0 00-.88.43c-.33-.11-.23-.79.45-.88-.12-.38-.72-.62-.8-.24a.37.37 0 01.53-.47 3.43 3.43 0 00.45.4.58.58 0 00-.26-.64c.6-.35.47.53.82.62a1.92 1.92 0 00.93 0 .5.5 0 00-.09-.4.69.69 0 01-.39-.54c-.29-.08-.28-.22-.21-.44a.57.57 0 00-.31-.57.36.36 0 01-.53-.1.65.65 0 00.47-.38c0-.18-.77-.49-.82 0-.25-.8.49-.72.65-.66 0-.71-.41-1-.61-.86.41-.56.83 0 .85.25.28 0 .25-.49.14-.7a.48.48 0 01.45.7c-.14.24-.51.36-.23.71a10.49 10.49 0 011.12 1.15.44.44 0 01.24-.31c-.22-.05-.21-.17-.21-.24.54 0 .47-.24.71-.53a.3.3 0 01-.22-.26c.47.19.34-.51.94-.34-.18-.27.13-.1.33-.68.05-.16.27-.05.31 0v.23a.69.69 0 01.7-.19c.42.11.42-.24.42-.24a.51.51 0 010 .55l.24-.11v.42c.1 0 .27 0 .29.1a1.25 1.25 0 000 .27c0 .06.23 0 .24.13a1.16 1.16 0 01-.54.66 1.65 1.65 0 01-.1 1.2c-.24.19-.32.6-.07.5a.19.19 0 01-.22.22.72.72 0 000 .7.26.26 0 00.29 0 .45.45 0 01-.44.35c.35.77 1.2 1.23 1.42 2s.54.77.77.76a1 1 0 00.33-1.26c-.22-.42-.8-.11-.37.21a.37.37 0 01-.39-.62.53.53 0 01.48-.18c-.24-.4-.92-.46-.92-1s.56-.37.5-.2c-.28-.09-.43.26 0 .47l.48.3a2.51 2.51 0 010-1.78c.36-.94.85-1.77.25-1.77-.45 0-.2.32-.13.32-.21.1-.81 0-.33-.58-1.09-.31-.35-1.14-.11-.84-.45.18-.09.58.35.44a.53.53 0 01.34-.9 1 1 0 01.4-.12.49.49 0 01.41.28.14.14 0 01-.09.17s-.16-.3-.34-.19m-3.81.49l-.16.17.16.17-.05-.08.1-.07h.08v-.02h.08l.06-.09v-.06l-.2.1-.06-.07v-.32l-.13-.08a.23.23 0 01.08.14.82.82 0 010 .22m.45 1.64a.6.6 0 00.16-.3V57h-.11a1.06 1.06 0 01-.46.66 2 2 0 00.15-.43h-.07V57.06c.14 0 .24-.09.53-.2h-.46l-.18-.44s.06.46.09.58h-.52l-.08-.14a1.44 1.44 0 00-.24.3 1.23 1.23 0 01.29-.67v-.07h-.07l-.09.14a2.79 2.79 0 00-.17.41.65.65 0 01-.28.32l.07.05H41l.11.08c0 .14-.12.28.11.42a.45.45 0 00.44-.08l.19.24a.42.42 0 00.15.18v-.09a2 2 0 01.1-.31 2 2 0 01.25-.35m.4-.88l-.1-.07.1-.07h.08v-.09a.82.82 0 01.19-.1.23.23 0 01.16 0l-.13-.07h-.13l-.19.08h-.08v-.3.07l-.05.1v.09l-.08.15.16.17h.08m-17.35-34a1.75 1.75 0 00-.94 2 2.08 2.08 0 00.89 3.4 1.15 1.15 0 00.64-1.18 1.43 1.43 0 001.56.41 2.66 2.66 0 00-.56-1.69 1.47 1.47 0 00.71-.61c-.26-.69-1.66-.69-2.09-1a1 1 0 01-.13-1.33m36 46.89l-.08.23a.71.71 0 00.32.49 2 2 0 00.68.35l.18.05-.06.18c-.09.28-.17.53-.23.7h.56a2 2 0 001-.21 1 1 0 00.47-.68v-.13a1.3 1.3 0 00-.66-.93 2.57 2.57 0 00-1.33-.45 1 1 0 00-.84.37m0 1a1.65 1.65 0 01-.3-.37l-.37.8a2.88 2.88 0 001.11.48c0-.13.12-.34.2-.59a2.34 2.34 0 01-.64-.36m-2.89 1h.08v-.26l-.18-.14a3.69 3.69 0 00-.74-.3 9.89 9.89 0 01-1.86-.68 1.5 1.5 0 01-.44-.37l-.38 1.32a19 19 0 003.13.5 1.57 1.57 0 00.38 0m3.68 3a13.53 13.53 0 011.33-2.6 3.1 3.1 0 01-.75.08 7.12 7.12 0 01-1-.07 3.35 3.35 0 01-1.43-.63 15.55 15.55 0 01-1.71-1.48 4.6 4.6 0 00-1.43-1 2.91 2.91 0 00-.85-.14 1.17 1.17 0 00-.47.08.44.44 0 00-.26.25v.15V69a.53.53 0 00.19.4 1.88 1.88 0 00.57.35c.48.21 1.1.36 1.63.54a2.58 2.58 0 01.86.42.58.58 0 01.21.43.63.63 0 01-.09.31l-.08.07-.74 1.48.37.23a9.78 9.78 0 00.91.47 5.82 5.82 0 002.23.6 2 2 0 00.53-.07M45.85 71h-.27v.61H45.92a.26.26 0 00.08-.35v-.2l-.15-.06m-1.27-.08h-.22v.25h.23v-.1zm4.42.44l-.08-.06h-.32l-.09.18v.2l.18.1h.15l.1-.08v-.25zm-6-.11h.31l-.15-.38zm-6.84.1l-.06-.08h-.16l-.19.1-.05.2.09.18.21-.01h.14l.08-.1v-.19zm4-.49H40v.25h.23v-.1zM39 71h-.36l-.06.2.08.19.2.06H39l.09-.1V71.11zm19.5.67l-1.36 2.65A70.24 70.24 0 0042 72.41a69.94 69.94 0 00-15.09 1.91l-1.36-2.65h.25a19.55 19.55 0 003.27-.52c1.41-.29 3.06-.65 4.76-.93a52.71 52.71 0 018-.55 57.64 57.64 0 018.41.55c1.7.28 3.35.64 4.76.93a19.59 19.59 0 003.27.52h.23zm-30 1.57l-.1-.24-.46.1-.17-.77-.31.07.22 1zm1-.21v-.2l-.46.09v-.22l.43-.09v-.21l-.43.09v-.19l.45-.09v-.2l-.75.15.21 1zm.71-.94l.32-.09v-.25l-1.05.2v.25l.37-.07.15.81.31-.06zm2.18-.09l-.1-.57-.29.09.07.48v.17l-.07.12h-.24l-.1-.08-.06-.16-.08-.49-.31.05.09.57a.44.44 0 00.13.26l.23.12h.26l.18-.06.16-.11.1-.17V72zm1 0l-.06-.14-.13-.08-.2-.04h-.1v-.06h.25l.15.06v-.24h-.37l-.2.07-.11.13v.16l.06.14.12.09.2-.09h.13V72.12h-.28l-.17-.06v.25h.37l.2-.07.12-.13zm1.77 0l-.06-.49-.41.05v.21h.14v.12h-.31l-.12-.09-.05-.14v-.13l.1-.14.21-.08h.36v-.25h-.53l-.13.06-.13.1-.1.19v.23a.54.54 0 00.12.29l.23.15a.71.71 0 00.3 0H35.13zm1.35-.61l-.06-.2-.13-.16-.15-.03h-.26a.64.64 0 00-.32.11l-.17.22v.27l.09.25.19.15a.7.7 0 00.3 0 .68.68 0 00.31-.11l.18-.22zm1.09 0h.43v-.21h-.43v-.2l.4.02v-.21l-.74.06.09 1h.31zm1.8-.23l-.01-.16-.12-.16-.19-.11h-.26a.63.63 0 00-.32.1l-.19.17v.27l.08.26.21.18a.65.65 0 00.33.05.66.66 0 00.31-.09l.19-.21zm1.28.47l-.11-.22-.1-.16-.09-.06h.07l.06-.08v-.27l-.12-.12h-.74v1H40v-.41h.12l.07.06.09.15.09.18h.33zm1.41 0l.44-1.06h-.28l-.25.6-.25-.58h-.2l-.24.58-.22-.57h-.32l.45 1h.18l.27-.6.28.61h.18zm1.69 0l-.43-1H43l-.48 1h.32l.16-.2h.45l.08.21h.32zm1.22.08l-.09-.23-.08-.17-.08-.07h.08l.07-.08v-.27l-.11-.13-.21-.06h-.53v1h.31v-.41h.09l.07.06.07.15.07.19zm1.28-.59l-.04-.12-.09-.11-.07-.05h-.8l-.07 1h.54a.51.51 0 00.32-.07l.15-.15a.48.48 0 00.08-.25v-.25zm1.82-.2l-1.1-.1v.25h.38l-.08.78h.31l.08-.78h.38zm1.2.46l-.09-.18-.17-.14-.24-.06a.63.63 0 00-.33 0l-.22.17-.1.25v.27l.17.22a.66.66 0 00.31.11A.64.64 0 0049 72l.22-.17.1-.26v-.18zm1.28-.07l-.18-.08-.22-.05h-.32l-.15.06-.15.15-.07.22a.53.53 0 000 .3l.19.21.32.11h.47l.07-.5-.41-.06v.21h.14V72h-.16l-.17-.06-.09-.12v-.15l.05-.13.13-.1h.22l.19.06.14.09zm1.1.12l-.76-.12-.17 1 .77.13v-.21l-.46-.07v-.22l.51.06v-.21l-.43-.07v-.19l.45.07zm1.32.22l-1.05-.19v.25l.37.07-.14.77.31.06.14-.78.37.07zm1.32.26l-.32-.06-.07.37-.46-.09.07-.37-.3-.06-.2 1 .31.06.08-.4.46.09-.08.4.31.06zm1.07.22L54.6 72l-.21 1 .76.16v-.21l-.46-.09v-.22l.43.09v-.21l-.43-.09v-.19l.45.09zm1.08.41l-.09-.15-.2-.09-.52-.11-.21 1 .31.07.08-.4h.08L56 73v.36l.33.07-.06-.24.01-.19-.07-.09h.08l.08-.06.06-.13v-.18zm-.47-.08h-.11l-.05.25h.22l.06-.09v-.11zm-33.48-2.88l-.08-.23a1 1 0 00-.83-.35 2.58 2.58 0 00-1.37.47 1.31 1.31 0 00-.66.93v.1a1 1 0 00.47.68 2 2 0 001 .21h.56c-.06-.17-.14-.42-.23-.7l-.06-.18.18-.05a2.06 2.06 0 00.68-.35.71.71 0 00.31-.49m.26.38a1.52 1.52 0 01-.3.32 2.35 2.35 0 01-.64.36c.08.32.19.51.19.64a2.9 2.9 0 001.11-.48l-.36-.84m2.45 1.25h.08a1.55 1.55 0 00.37 0 19.06 19.06 0 003.13-.5l-.38-1.21a1.51 1.51 0 01-.44.37 9.89 9.89 0 01-1.86.68 3.79 3.79 0 00-.74.3l-.18.11v.26m-4.88.4a13.6 13.6 0 011.34 2.6 2 2 0 00.53.07 5.86 5.86 0 002.23-.6 9.57 9.57 0 00.9-.47l.38-.26-.78-1.48-.06-.07a.65.65 0 01-.08-.31.57.57 0 01.24-.43 2.6 2.6 0 01.87-.42c.52-.17 1.15-.33 1.63-.54a1.91 1.91 0 00.5-.35.54.54 0 00.19-.4v-.26a.45.45 0 00-.26-.25 1.2 1.2 0 00-.47-.08 2.92 2.92 0 00-.85.14 4.6 4.6 0 00-1.43 1 15.55 15.55 0 01-1.71 1.48 3.35 3.35 0 01-1.43.63 7.14 7.14 0 01-1 .07 3.1 3.1 0 01-.75-.08m31.88-57.44a1.87 1.87 0 011.38-1.36 2.84 2.84 0 00-.77 1.93 3.85 3.85 0 01-.42 1.58C52 17 51 18.64 47.64 17.68c.33 2 0 1.58 0 2.6a2.51 2.51 0 001.24 2.19c.08 1.13-.29 3.41-1 3.41h-.18a3.44 3.44 0 01.4 1.1 7.49 7.49 0 00-1.45-.65 15.23 15.23 0 00-4.78-.75 14.84 14.84 0 00-6 1.08 3.58 3.58 0 01.42-.93.73.73 0 01.46-1 1 1 0 00.93-.86c.09-.37 1.14-3.29 0-3.43s-.36.46-2.12.46h-.68l-1.51 1.62a.57.57 0 01-.21.49 4.17 4.17 0 00-.54.65.21.21 0 01-.16-.16l-.86.92a1.08 1.08 0 00-.24.52l.06.23-.06.17-.17.07a1.17 1.17 0 01-.7-.41 1.15 1.15 0 01-.39-.69l.06-.17.17-.14h.14a2.26 2.26 0 00.69-.36l1.07-1.18a4.34 4.34 0 01.3-2.13c.15-.34 1.28-.51 2.16-.62l1.14-1.29a1.58 1.58 0 00-.1-.42c-.09-.17-.45.2-.33-1.7-.32-.2-1.2.4-1.51.42a1 1 0 01-.16-.83h.05l-.66.32a1.21 1.21 0 01-.52.16.51.51 0 01-.44-.26.77.77 0 00-.38-.35l.13-.14.27-.1h.07a1.46 1.46 0 00.61.29h.13a9.54 9.54 0 011.8-.69h.13a1.38 1.38 0 01.52.1l.15.09a.7.7 0 00-.91-.43 11.47 11.47 0 00-1.21.38 2.09 2.09 0 01-.86-1.39c0-.32 1.23-.42 1.36-.66a.63.63 0 01.72-.38 5.61 5.61 0 011.31-.35c2.17.25 2.38 1.74 2.76 2.62 3.37-3.84 6.51-7.5 6.55-7.78.35-.71-.29-1.15.17-1.56a1.85 1.85 0 011.84.43c.68.54 1.11 1.21.87 1.66s-.58.24-1.08.34a5.13 5.13 0 00-1.78 1.35l-5.85 6.28a11.68 11.68 0 003.26.07c4.14 0 6.2 1.26 7.48 1s1.69-1.23 1.9-2.7m-17.5 0c.16.06 1-.31.84-.57a1 1 0 00-1-.29 1.26 1.26 0 01.77.34.37.37 0 01-.26.26v-.16a.18.18 0 10-.33 0 .27.27 0 00.13.26c-.14.08-.25.14-.19.17m-1.33 7.09l.46-.51a.44.44 0 00-.43.07 1 1 0 000 .44m3.76-4.8c.86 0 1-2.08.6-2.71.36 1.22-.27 1.86-.64 1.86-.8 0-.47-1.54-1.05-2.12.56 1.67.16 3 1.14 3m10.87 8a2.32 2.32 0 00-.39-1.8c-.41-.46-1.84-1.09-2.44-2.28v-.07a1.59 1.59 0 00-2.16-.81l-.14.06a4.1 4.1 0 01-2.58.84c-.59-.1-1.07 2.47-1.56 3.37a8.16 8.16 0 013.27-.66 8.66 8.66 0 011.09.07 1.48 1.48 0 00.62-.87c-.18-.63-.59-1.81-.77-2.42h.09a2.69 2.69 0 01.77-.14 1.2 1.2 0 01.63.16 1.48 1.48 0 01.56.68v.09c-.14.23-.27.47-.36.62a2.32 2.32 0 00.28 1.51 2.3 2.3 0 01-.57.68 6.19 6.19 0 012.82 1.68c.12-.18.25-.34.29-.42a1.72 1.72 0 00.59-.35m-4.71 22.43a.41.41 0 00-.34.18v.05h-.55v-3a4.69 4.69 0 00-.14-.84 2.45 2.45 0 00-.26-.76l-.07.11a2.67 2.67 0 00-.19.51 5.1 5.1 0 00-.18 1v3H41v-.05a.41.41 0 10-.34.64h.88v1.61a.44.44 0 00.88 0v-1.63h.92a.41.41 0 000-.82M24.4 43c1.29 0 1.29-.66 2.59-.66a2.41 2.41 0 011 .21 6.24 6.24 0 00-.34-.88 2.34 2.34 0 00-1.25-.32c-1.27 0-1.27.66-2.54.66s-1.27-.66-2.54-.66a2.73 2.73 0 00-1.47.43c.17.39.33.72.45 1a2.79 2.79 0 011.48-.42c1.29 0 1.29.66 2.59.66m-2.24 12.5a5.14 5.14 0 00.15 3.48 2.36 2.36 0 011.56 1.1 1.74 1.74 0 01-.31 2.49.88.88 0 00.94.3 1.82 1.82 0 00.84 1.84.54.54 0 00.32-.48c.21.19.42.71.88 1.3a.93.93 0 00.49-.63 1.4 1.4 0 001.09.86 1.67 1.67 0 00.21-1c.48.09 1.24 1.66 1.6 2.49.59-.25.69-1.57.33-2.24.5-.1.59 1 2.4.86.13-1.13-.86-1.32-1.43-1.72a3 3 0 012-.17c-.29-1.7-2.35-.92-2.4-1a1.27 1.27 0 011.2-1 1.61 1.61 0 00-1.66-.39c-.8.23-.55 1.05-1.2 1.09s-2-.69-2-1.51.73-3.69.48-5.22a1.51 1.51 0 00-1.47-1.47c-1.09 0-1.62 1.17-2.48 1.32a2.29 2.29 0 01-1.52-.34m3-19a4.85 4.85 0 003.42 1 1.73 1.73 0 01-1.66.65c-.8-.06-1.55-.63-2.2-.53a7.28 7.28 0 001.72.84 3.39 3.39 0 00-.61 1.09 3 3 0 011 .8v.07a2.48 2.48 0 00-.78-.11c-1.27 0-1.27.66-2.54.66s-1.27-.66-2.54-.66a3 3 0 00-1.57.47c-.6-1.73-.93-3.94.81-5.33a9.8 9.8 0 01-1-4.52c.53 0 1.77 1.6 2 2.2a5.61 5.61 0 01.97-2.11 3.18 3.18 0 001 2.56A27.15 27.15 0 0126 34a.64.64 0 01.38.4 1.91 1.91 0 011.42.68 1.89 1.89 0 01-.41 2.1.83.83 0 00-.74-.81 3.07 3.07 0 00-1.49.14m0 2.76c.11-.86-.93-1.31-1.73-1.33a.83.83 0 00.5.77c.24.15.72.33 1.23.56m.35-4.11c.1.07.26.31-.37.54.74 0 1-.57.87-.74s-2.69-.45-2.92-.46a1.73 1.73 0 00.55.4.93.93 0 01.49.67 2.12 2.12 0 00.08-.4.23.23 0 01.25-.17.46.46 0 00.32.61.31.31 0 00.4-.22v-.26a.36.36 0 01.33 0M59.59 43c1.29 0 1.29-.66 2.59-.66a2.78 2.78 0 011.48.42c.12-.26.28-.6.45-1a2.74 2.74 0 00-1.47-.43c-1.27 0-1.27.66-2.54.66s-1.27-.66-2.54-.66a2.34 2.34 0 00-1.25.32 6.24 6.24 0 00-.34.88 2.41 2.41 0 011-.21c1.29 0 1.29.66 2.59.66m2.3 12.62a2.35 2.35 0 01-1.54.29c-.86-.15-1.39-1.32-2.48-1.32A1.51 1.51 0 0056.37 56c-.25 1.53.48 4.4.48 5.22s-1.35 1.55-2 1.51-.4-.86-1.2-1.09a1.61 1.61 0 00-1.66.39 1.27 1.27 0 011.2 1c-.06.1-2.12-.69-2.4 1a3 3 0 012 .17c-.57.4-1.56.59-1.43 1.72 1.81.17 1.91-1 2.4-.86-.36.67-.27 2 .32 2.24.36-.82 1.13-2.39 1.6-2.49a1.67 1.67 0 00.21 1 1.4 1.4 0 001.11-.89.92.92 0 00.48.67c.46-.59.67-1.11.88-1.3a.54.54 0 00.32.48 1.83 1.83 0 00.84-1.84.88.88 0 00.94-.3 1.73 1.73 0 01-.31-2.49 2.33 2.33 0 011.59-1.05 5.25 5.25 0 00.13-3.48m9.92-13.21a3.4 3.4 0 012.83.32c-1.35 2.05-2.34 1.61-3.21 2.11a2.28 2.28 0 011.73 1c-.18 1.23-1.6 1.08-2.52 1.16a1.37 1.37 0 011.33 1 1.93 1.93 0 01-2.06.25 2.34 2.34 0 01.25 1.76 1.83 1.83 0 01-2.14-.28 2.09 2.09 0 01-.13 1.56 2.12 2.12 0 01-2-1.48 2.31 2.31 0 01-.55 2.1 2.63 2.63 0 01-1.37-1.8 1.85 1.85 0 01-.6 1.69 2.65 2.65 0 01-1.64-1.62 3 3 0 01-.83.64 2.73 2.73 0 01-.92-2.08 2.36 2.36 0 01-1 .67 1.52 1.52 0 01-.36-.88 3.2 3.2 0 01-2.25 2.23 1.14 1.14 0 01-.35-1.12 4.57 4.57 0 01-.91.59 2.29 2.29 0 00-.3 1c.69-.23 2.63-.4 3 .82-.63-.12-2.75-.32-3.05.6s.61 1.66 1.53 2.93c-.56.43-1.88-.57-2.27-1.42a5.24 5.24 0 00.71 3.2c-2.16-.47-1.58-2.7-1.7-3-.2.25-.67.85-.72 3a.69.69 0 01-.29-.27A17.85 17.85 0 0142 69a17.84 17.84 0 01-10-11.89l-.19.15a10.4 10.4 0 00-.1-1.27c-.06-.28-.12-.55-.17-.81a2.38 2.38 0 00-.45-.9c-.12.33.46 2.57-1.7 3a5.26 5.26 0 00.71-3.2c-.5.92-1.82 1.92-2.29 1.52.92-1.27 1.83-2 1.53-2.93s-2.42-.72-3.05-.6c.32-1.22 2.27-1.05 3-.82a2.24 2.24 0 00-.3-1 4.55 4.55 0 01-.99-.62 1.15 1.15 0 01-.41 1.11 3.2 3.2 0 01-2.25-2.23 1.52 1.52 0 01-.35.88 2.36 2.36 0 01-1-.67 2.74 2.74 0 01-.92 2.08 3 3 0 01-.83-.64 2.66 2.66 0 01-1.64 1.62 1.85 1.85 0 01-.6-1.69 2.63 2.63 0 01-1.37 1.8 2.31 2.31 0 01-.55-2.1 2.12 2.12 0 01-2 1.48 2.09 2.09 0 01-.08-1.55 1.83 1.83 0 01-2.16.25 2.34 2.34 0 01.26-1.66 1.93 1.93 0 01-2.06-.25 1.37 1.37 0 011.33-1c-.92-.08-2.33.07-2.52-1.16a2.28 2.28 0 011.73-1c-.87-.5-1.87-.06-3.22-2.11a3.41 3.41 0 012.83-.32c-.93-.62-3.25-1.16-3.82-3.57a7.53 7.53 0 012.89.43c-1-.76-3.23-3.18-3.34-5.13.6.23 1.9 2 3.16 2.43-.45-.55-3.44-3.67-2.69-5.92.47.48 1.82 2.42 3.24 3.11-.82-1.09-2.31-4.4-1.75-6.24.26 1.32 2.43 4.6 3.14 4.89a2.19 2.19 0 01.14-.9c1.35 2.28 3.94 4.25 4.41 4.92s.93 1 .35 3.61.67 5.14 1.76 5.21c.85.05 1-.68 1-1.37a2.76 2.76 0 011.46-.41c1.29 0 1.29.66 2.59.66s1.29-.66 2.59-.66a2.45 2.45 0 011 .18 9.18 9.18 0 01.1 1.65 3.25 3.25 0 002.43 2.58.9.9 0 01-.74.54 1.3 1.3 0 011 1.17.87.87 0 01-.83-.07c.26.57.59 1.29.92 2V41.14H37a5.06 5.06 0 00-1.52-6.4 5.41 5.41 0 011.44 4.2 3 3 0 01-2.82 1.27 1.41 1.41 0 01-.17-1.21c-3.77.5-4.6-.93-4.76-1.09a3.78 3.78 0 01.83-2.48c-.4-.23-1.92-.36-2.42-1.72.68-1.68 3.13-1.19 3.13-1.19-3.57-2.21-4-.79-5.28-1.37a.82.82 0 01.25-.77 1.48 1.48 0 01-1.11-1.23c.7-.58 1.09-.37 1.88-.19a.85.85 0 01-.32-.67c1.16-.23 2.11 1.19 2.83 1.86-1-1.89-.75-3.89-1.39-4.57a1.87 1.87 0 00.38-.39L28 25l.08-.13V24.7a2 2 0 00-1.55-1l-.32-.09a1.51 1.51 0 01-.31-.12c-.11-.09-.31-.25 0-.85l.14-.3c3.29-.52 4.16 6.75 4.78 6.64a4.47 4.47 0 01.32-3.22 1 1 0 01.68.46 2.75 2.75 0 011.66-1.47 3.11 3.11 0 01-.48 1.63 1.85 1.85 0 01.74.14c-.93 1-2.06 1.93-1.69 3.79a2.82 2.82 0 011.19-1.82 2.56 2.56 0 01.27.58c.3-.36.41-.45.85-1 .14 1 .66 2.24 0 2.73s-2.85 1.68-1.75 2.24a11.22 11.22 0 006.23.44c2.67-.57 2.11-2.43 2.68-3s1.29-.75 3.82-1c-1.16-.14-4.17 0-4.49.85s-.45 2.43-2.09 2.67c-1.9.28-4.89.28-5.57-.43-.39-.4 1.62-1.65 1.62-1.65a5.07 5.07 0 011-1.44 1.38 1.38 0 01-.7-1.42C35 26.88 38.32 26 41.87 26s6.63 1.25 6.72 2.09a1.48 1.48 0 01-.5 1.53v.15c.05.46.75 2.43 1.68 2.43a.54.54 0 00.61-.27c.13-.25-2.09-1.41-1.15-4.12a1.79 1.79 0 011.36.6.73.73 0 01.07-.82c1 .37 1.22 1.43 1.47 2.16 0 0 .68 0 .51-1.26-.21-1.59-2.36-1.98-2.64-2.49a1.08 1.08 0 01.51-.64 1.87 1.87 0 01-.62-1.64c1.27-.64 1.76.53 2 .62a1 1 0 01.43-1.14c1.2.53 1.22 2.73 1.66 2.74s-.38-2.28 1.11-3.72a3.3 3.3 0 011.13-.69 1.3 1.3 0 011.27.8 1.09 1.09 0 01.09.66 1.45 1.45 0 00-.58-.45 1.3 1.3 0 00-1 1.32 2.4 2.4 0 00-1.22 2.5 1.13 1.13 0 00.36.8 1.17 1.17 0 011-.5 8 8 0 00-.5 2.13c.19.13 1.68-1.43 2.54-1.17a3.42 3.42 0 01.06.76 2.17 2.17 0 011.14.63 2.45 2.45 0 01-1.07 1 1.82 1.82 0 01.2.72c-.68.2-5.21 1.42-5 2.34 2.05-1.59 3.17.06 3.16.52a3 3 0 01-2.1 1.73c-.39.07-2-.53-2.47.24 2.49.24 1.67 3.25 1.41 3.51-2.55-.06-2.75-1.4-3.18-1.66a5 5 0 01.13 2.88 2.47 2.47 0 01-1.79-.84 32.27 32.27 0 01-1.36-6c0-.25-.16 4.77 1.55 7.71h4.1v10.5c.35-.78.7-1.55 1-2.16a.87.87 0 01-.83.07 1.3 1.3 0 011-1.17.9.9 0 01-.74-.54 3.26 3.26 0 002.44-2.58 9.18 9.18 0 01.1-1.65 2.45 2.45 0 011-.18c1.29 0 1.29.66 2.59.66s1.29-.66 2.59-.66a2.77 2.77 0 011.47.41c-.07.69.1 1.43 1 1.37 1.09-.07 2.34-2.63 1.76-5.21s-.12-2.93.35-3.61 3.05-2.64 4.41-4.92a2.2 2.2 0 01.14.9c.71-.29 2.87-3.57 3.14-4.89.56 1.85-.93 5.15-1.75 6.24 1.42-.69 2.77-2.63 3.24-3.11.75 2.25-2.24 5.37-2.69 5.92 1.26-.48 2.56-2.2 3.16-2.43-.11 2-2.31 4.37-3.34 5.13a7.53 7.53 0 012.89-.43c-.89 2.41-3.18 2.95-4.11 3.56zM17.13 45a.47.47 0 00-.9-.2l-.32-.05c0-.51.64-6.36-1.18-9.43a2.68 2.68 0 01-1.09 2.11c.07.24.24.81.44 1.55a.6.6 0 01.35-.11.62.62 0 010 1.24h-.07a19.69 19.69 0 01.64 4.53l-.8-.13h-.08a.47.47 0 10.42.69l.46.05-.23 1.75-.07.27a.54.54 0 101.09 0 .55.55 0 00-.1-.31l.14-1.62.63.09h.19a.47.47 0 00.48-.43zm24.47-3.86h5.95a3 3 0 00-2.43-1.47 6.38 6.38 0 00-3.52 1.47zm-9.9 10a2.78 2.78 0 001.17-.39 4.16 4.16 0 014 0 3.15 3.15 0 003.1 0 4.16 4.16 0 014 0 3.15 3.15 0 003.1 0 4.16 4.16 0 014 0 2.84 2.84 0 001 .37v-9.37H31.7v9.36zm0 1.89l.11.26a3 3 0 001-.37 4.16 4.16 0 014 0 3.17 3.17 0 003.1 0 4.16 4.16 0 014 0 3.17 3.17 0 003.1 0 4.16 4.16 0 014 0 3 3 0 001 .36v-.06c.05-.58.06-1 .06-1.06a3.91 3.91 0 01-1.51-.5 3.15 3.15 0 00-3.1 0 3.86 3.86 0 01-2 .52 3.88 3.88 0 01-2-.52 3.15 3.15 0 00-3.1 0 4.17 4.17 0 01-4 0 3.15 3.15 0 00-3.1 0 3.86 3.86 0 01-1.64.51c.08.07.09.37.13.83zm19.9 3.28a2.51 2.51 0 01-.11-1.22 5.15 5.15 0 01.27-.87 4.15 4.15 0 01-1-.42 3.14 3.14 0 00-3.1 0 4.16 4.16 0 01-4 0 3.14 3.14 0 00-3.1 0 4.16 4.16 0 01-4 0 3.14 3.14 0 00-3.1 0 4.22 4.22 0 01-1.11.43 5.24 5.24 0 01.26.86 2.52 2.52 0 01-.14 1.33c.16.57.35 1.18.59 1.81a16.78 16.78 0 009 9.49 16.76 16.76 0 009-9.49 18.76 18.76 0 00.54-1.92zm17.34-16.79a.61.61 0 011-.5c.19-.73.36-1.3.44-1.55a2.67 2.67 0 01-1.09-2.11c-1.82 3.08-1.21 8.92-1.18 9.43l-.32.05a.47.47 0 10-.43.67h.19l.63-.09.12 1.58a.55.55 0 101 .31l-.08-.31-.22-1.75.41-.06a.47.47 0 10.42-.69h-.05l-.8.13a19.81 19.81 0 01.65-4.51h-.07a.62.62 0 01-.62-.6zm-5.26-4c1.74 1.39 1.42 3.6.81 5.33a3 3 0 00-1.56-.47c-1.27 0-1.27.66-2.54.66s-1.27-.66-2.54-.66a2.46 2.46 0 00-.78.11v-.07a3 3 0 011-.8 3.41 3.41 0 00-.61-1.09 7.3 7.3 0 001.72-.84c-.65-.1-1.4.47-2.2.53a1.73 1.73 0 01-1.66-.65 4.86 4.86 0 003.42-1 3.05 3.05 0 00-1.49-.14.83.83 0 00-.74.81 1.89 1.89 0 01-.41-2.1 1.91 1.91 0 011.42-.68A.64.64 0 0158 34a27.05 27.05 0 012.83-.43 3.17 3.17 0 001-2.56 5.61 5.61 0 01.81 2.15c.24-.6 1.48-2.16 2-2.2a9.78 9.78 0 01-1 4.52m-3.6 3.23a.83.83 0 00.5-.77c-.8 0-1.85.47-1.73 1.33.51-.23 1-.41 1.23-.56m.29-3.81a1.71 1.71 0 00.55-.4A10.51 10.51 0 0058 35c-.16.17.13.75.87.74-.63-.23-.48-.48-.37-.54a.36.36 0 01.33 0v.27a.31.31 0 00.39.22.46.46 0 00.31-.69.23.23 0 01.28.18 2.22 2.22 0 00.08.4.93.93 0 01.49-.67M57 21.36c.86.27 1.19 1.8.77 2s-.72-.46-.77-.45a1 1 0 00-.64 1.24c-1.55.34-1.27 2.65-1.21 2.54a1.37 1.37 0 011-.46 2.65 2.65 0 002-.89 2 2 0 01-1 1.21 2.09 2.09 0 002.6-2.06c.1-3-2.48-3.25-2.7-3.13M41.13 48.11h-.49a.81.81 0 01-.8-.8.42.42 0 01-.52-.11c-.14-.38.76-.4.74-1.15s-1.85-2.26-1.52-3.17a1.25 1.25 0 00-.72 1.3 4.41 4.41 0 01-1.92-1.84 1.84 1.84 0 00-.13 1.66 4.37 4.37 0 01-2.33-1.75c-.36 1.28.34 2.37 2.1 3-.51 0-2.61-.55-3-1.42.05 1 1 2.87 2.52 2.62a2.58 2.58 0 01-2.21-.05A2.48 2.48 0 0036 47.75a.82.82 0 01-.53 1 2.71 2.71 0 002.43.16.92.92 0 01-.42.73 6.35 6.35 0 003.61-.29v-1.24zm7.74-1.7c1.49.25 2.47-1.6 2.52-2.62-.36.87-2.46 1.46-3 1.42 1.76-.6 2.46-1.7 2.1-3A4.38 4.38 0 0148.2 44a1.84 1.84 0 00-.12-1.67 4.41 4.41 0 01-1.92 1.84 1.25 1.25 0 00-.72-1.3c.33.91-1.51 2.42-1.52 3.17s.89.76.74 1.15c-.06.16-.29.16-.56.1a.8.8 0 01-.73.8h-.57v1.21a6.35 6.35 0 003.65.31.92.92 0 01-.45-.71 2.71 2.71 0 002.43-.16.83.83 0 01-.53-1 2.48 2.48 0 003.16-1.4 2.58 2.58 0 01-2.21.05m21.21 4.25a2.16 2.16 0 01-.81.16 2.32 2.32 0 01-.37 0 4.17 4.17 0 00.36 1.54 2 2 0 01-1.86-.48h-.03c0 .49-.16 1.85 1.11 2s1.32.19 1.45.34a1.46 1.46 0 01-1.91 0c.13 1.32.88 2 1.66 1.93s1.53-.27 1.79.1a2.4 2.4 0 01-1.64.29 1.29 1.29 0 001.24 1.15c.55.1.31 1-.55 1S68.75 58 68 56.7c-.52-.91-1.72-3-2.39-4.25l-.12.17-.43-.18a2.56 2.56 0 01-1-.69 2.67 2.67 0 01-.4.46l-.26.25-.34-.12a3.22 3.22 0 01-1.61-1.24 2.77 2.77 0 01-.41.24l-.36.17-.29-.28a3.56 3.56 0 01-.93-1.42 1.77 1.77 0 01-.41.16l-.38.09-.16-.22a3.86 3.86 0 01-1.08 1c1.44 1.76 4.81 2.51 5.1 5.53.35 3.59-2 3.33-1.18 6.52 2.47-.22 6.81 2.1 6.12 5.14 0 0-1.91-.86-2.23.58.61.5 1.35-.14 1.66.13-1 .5-2.31 1.82-1.81 2.62.78-.63 1.39-.44 2.08-1.38 0 .5-.42 2 .84 2.37.52-.59 0-2.62.63-2.66s1.07 1.15 1.3 1.59c.38-.13.74-1.55-.15-2.62a1.18 1.18 0 001-.27 2.15 2.15 0 01-.65-1.34 1.09 1.09 0 001.07-.46 2 2 0 01-1-1.15 1.28 1.28 0 00.76-1c-.4.06-3.43-1-3.87-2.66a8.08 8.08 0 010-3.45c.48.46 2.56 2.33 4.9 1.17 2-1 .08-4.74-.32-5.41S70 52 70.09 50.66m6.79.46a1.49 1.49 0 011.56.06c-.06-2.28-2-1.25-3.36-2.2a7.3 7.3 0 00-2.7-1.33l.09.19.21.47-.45.26a3.27 3.27 0 01-1.49.52 2.63 2.63 0 010 .31c1.42-.58 3.14.37 3 1.3s-.46 1.95 0 2.37a1.52 1.52 0 01.76 1c.53-.48-.08-2 .23-2.1.15.29.34 1.59 1.16 2s2.62.53 2.76 1.03c.63-1-1.74-1.57-1.77-3.87m-63-.46c.06 1.38-1.34 3-1.65 3.54s-2.36 4.4-.33 5.41c2.34 1.16 4.42-.71 4.9-1.17a8.08 8.08 0 010 3.45c-.44 1.63-3.47 2.71-3.87 2.66a1.28 1.28 0 00.76 1 2 2 0 01-1 1.15 1.09 1.09 0 001.07.46 2.15 2.15 0 01-.65 1.34 1.18 1.18 0 001 .27c-.9 1.07-.53 2.48-.15 2.62.23-.44.71-1.63 1.3-1.59s.11 2.07.63 2.66c1.26-.32.84-1.88.84-2.37.69.94 1.3.75 2.08 1.38.5-.81-.82-2.12-1.81-2.62.31-.27 1 .36 1.66-.13-.32-1.44-2.23-.58-2.23-.58-.69-3 3.65-5.36 6.12-5.14.77-3.27-1.55-3.01-1.2-6.6.29-3 3.66-3.76 5.1-5.53a3.84 3.84 0 01-1.08-1l-.16.22-.37-.1a1.75 1.75 0 01-.41-.16 3.57 3.57 0 01-.93 1.42l-.29.28-.36-.17a2.67 2.67 0 01-.42-.24 3.22 3.22 0 01-1.61 1.24l-.33.12-.26-.25a2.63 2.63 0 01-.4-.46 2.56 2.56 0 01-1 .69l-.43.18-.12-.17c-.68 1.21-1.87 3.34-2.39 4.25-.72 1.26-1.62 2-2.48 1.95s-1.11-.92-.55-1a1.29 1.29 0 001.24-1.15 2.41 2.41 0 01-1.64-.29c.27-.36 1-.19 1.79-.1s1.53-.61 1.66-1.93a1.46 1.46 0 01-1.91 0c.13-.15.12-.21 1.45-.34s1.14-1.48 1.11-2a2 2 0 01-1.86.48 4.17 4.17 0 00.36-1.54 2.31 2.31 0 01-.37 0 2.17 2.17 0 01-.81-.16m-6.78.46c0 2.3-2.4 2.85-1.77 3.87.12-.48 1.83-.71 2.67-1.09s1-1.68 1.16-2c.31.08-.31 1.63.23 2.1a1.52 1.52 0 01.76-1c.5-.42.15-1.37 0-2.37s1.61-1.88 3-1.3v-.31a3.26 3.26 0 01-1.49-.52l-.45-.26.21-.47.09-.19A7.29 7.29 0 008.88 49c-1.36.95-3.3-.08-3.36 2.2a1.49 1.49 0 011.56-.06M88.89 16.8h4.34v18.3h8.41v3.42H88.89V16.8zm22.46 5.32c-4.72 0-8.34 3.2-8.34 8.49a7.9 7.9 0 008.34 8.28c5.3 0 8.37-3.67 8.37-8.28 0-5.29-3.63-8.49-8.37-8.49m0 13.53c-3.16 0-4-2.89-4-5.54 0-2.4 1.3-4.76 4-4.76s4 2.3 4 4.76c0 2.68-.84 5.54-4 5.54m11.54 2.86H127v-7.83c0-2.05.65-5.32 3.66-5.32 2.67 0 2.7 2.64 2.7 4.6v8.56h4.16V28.41c0-3.61-1.64-6.29-5.43-6.29a6 6 0 00-5.24 2.55h-.06V22.5h-3.94v16zm29.59 0h4V15.19h-4.16v9.18h-.02a5.67 5.67 0 00-4.78-2.24c-4.9 0-6.7 3.92-6.7 8.34s1.8 8.43 6.7 8.43a5.92 5.92 0 004.9-2.18h.06v1.81zm-7.32-8.06c0-2.15.74-5.1 3.44-5.1s3.72 2.86 3.72 5.1-.9 5.2-3.66 5.2-3.49-2.98-3.49-5.19zm23-8.34c-4.71 0-8.34 3.2-8.34 8.49a7.9 7.9 0 008.34 8.28c5.3 0 8.38-3.67 8.38-8.28 0-5.29-3.63-8.49-8.38-8.49m0 13.53c-3.16 0-4-2.89-4-5.54 0-2.4 1.3-4.76 4-4.76s4 2.3 4 4.76c0 2.68-.84 5.54-4 5.54m11.63 2.86h4.16v-7.82c0-2.05.65-5.32 3.66-5.32 2.67 0 2.7 2.64 2.7 4.6v8.56h4.16V28.41c0-3.61-1.65-6.29-5.43-6.29a6 6 0 00-5.24 2.55h-.06V22.5h-3.94v16zm27.32 0h7.57c2.73 0 7.63-.81 7.63-6.29 0-2.68-2-4.67-5-4.95v-.03a4.84 4.84 0 004.31-4.85c0-4.76-4.19-5.57-7-5.57h-7.57v21.71zm4.34-18.3h1.68c2 0 4.19.19 4.19 2.71 0 2.24-2.26 2.64-4.09 2.64h-1.77v-5.32zm0 8.59h2c2.17 0 4.47.44 4.47 3.27 0 2.52-2.45 3-4.47 3h-2v-6.25zM233 22.13c-4.72 0-8.34 3.2-8.34 8.49A7.9 7.9 0 00233 38.9c5.3 0 8.37-3.67 8.37-8.28 0-5.29-3.63-8.49-8.37-8.49m0 13.53c-3.16 0-4-2.89-4-5.54 0-2.4 1.3-4.76 4-4.76s4 2.3 4 4.76c0 2.68-.84 5.54-4 5.54m11.73 2.86h4.16v-5.88c0-2.3 0-6.53 3.38-6.53a4.22 4.22 0 011.86.34v-4.2a4.52 4.52 0 00-1.27-.12c-2.48 0-4.19 2.52-4.38 4h-.06V22.5h-3.72v16zm18.74-16.4c-4.72 0-8.35 3.2-8.35 8.49a7.9 7.9 0 008.35 8.28c5.3 0 8.37-3.67 8.37-8.28 0-5.29-3.63-8.49-8.37-8.49m0 13.53c-3.16 0-4-2.89-4-5.54 0-2.4 1.3-4.76 4-4.76s4 2.3 4 4.76c0 2.68-.84 5.54-4 5.54m26.22-13.15h-4.15v7.84c0 2.05-.65 5.32-3.66 5.32-2.67 0-2.7-2.64-2.7-4.6V22.5H275v10.11c0 3.61 1.64 6.29 5.43 6.29a6.65 6.65 0 005.24-2.55h.06v2.18h3.94v-16zm15 0v2.18h-.06a5.3 5.3 0 00-4.9-2.55c-4.78 0-6.76 4.45-6.76 8.31 0 4.3 1.8 8.09 6.51 8.09a5.7 5.7 0 005-2.55h.06c0 2.77-.22 6.22-4.81 6.22a11.93 11.93 0 01-4.65-1.4l-.34 3.55a14 14 0 005.52 1.09c6.7 0 8.44-4.11 8.44-8.46V22.5h-4zm-3.85 12.79c-2.39 0-3.54-2.68-3.54-4.85 0-2.46.9-5.07 3.72-5.07 2.42 0 3.47 2.24 3.47 5s-1.06 4.92-3.66 4.92zm11.43 3.24h4.16v-7.85c0-2.05.65-5.32 3.66-5.32 2.67 0 2.7 2.65 2.7 4.61v8.56h4.16V28.41c0-3.61-1.65-6.29-5.43-6.29a5.94 5.94 0 00-5 2.55h-.06v-9.48h-4.16v23.33zM95.84 54.11c-4.72 0-8.34 3.2-8.34 8.49a7.9 7.9 0 008.34 8.28c5.3 0 8.37-3.67 8.37-8.28 0-5.29-3.63-8.49-8.37-8.49m0 13.54c-3.16 0-4-2.89-4-5.54 0-2.4 1.3-4.76 4-4.76s4 2.3 4 4.76c0 2.67-.84 5.54-4 5.54M109 70.51h4.16v-13h3.63v-3h-3.63v-2c0-1.24.43-2.46 1.83-2.46a3.23 3.23 0 011.8.56l.34-3.45a14.55 14.55 0 00-3-.34c-3.29 0-5.09 2.24-5.09 5.44v2.24h-3.07v3H109v13zm19.54 0h4.34V61h8.68v9.52h4.34V48.79h-4.34v8.77h-8.68v-8.77h-4.34v21.72zm29.23-16.4c-4.72 0-8.34 3.2-8.34 8.49a7.9 7.9 0 008.34 8.28c5.3 0 8.38-3.67 8.38-8.28 0-5.29-3.63-8.49-8.38-8.49m0 13.54c-3.16 0-4-2.89-4-5.54 0-2.4 1.3-4.76 4-4.76s4 2.3 4 4.76c0 2.67-.84 5.54-4 5.54M184 54.49h-4.16v7.84c0 2.05-.65 5.32-3.66 5.32-2.67 0-2.7-2.64-2.7-4.61v-8.55h-4.16V64.6c0 3.61 1.65 6.29 5.43 6.29a6.66 6.66 0 005.25-2.56h.06v2.18H184v-16zm3.58 16h4.16v-7.82c0-2.05.65-5.32 3.66-5.32 2.67 0 2.7 2.64 2.7 4.61v8.56h4.16V60.4c0-3.61-1.65-6.29-5.43-6.29a6 6 0 00-5.24 2.55h-.06v-2.17h-3.94v16zm28.74-15.79a19.07 19.07 0 00-4.53-.59c-3.26 0-6.27 1.53-6.27 5 0 5.79 7.23 3.64 7.23 6.78 0 1.56-1.67 2-2.73 2a9.09 9.09 0 01-4.09-1.06l-.25 3.42a18.52 18.52 0 004.72.69c3.38 0 6.7-1.49 6.7-5.23 0-5.79-7.23-4.17-7.23-6.72 0-1.37 1.33-1.78 2.45-1.78a10.17 10.17 0 013.72.69zm4.09 15.81h4.16V47.17h-4.16v23.34zm15.85-16.4c-4.71 0-8.35 3.2-8.35 8.49a7.9 7.9 0 008.35 8.28c5.3 0 8.38-3.67 8.38-8.28 0-5.29-3.63-8.49-8.38-8.49m0 13.54c-3.16 0-4-2.89-4-5.54 0-2.4 1.3-4.76 4-4.76s4 2.3 4 4.76c0 2.67-.84 5.54-4 5.54m15.23 2.86h4.75l3.41-12.23h.06l3.47 12.23h4.9l4.9-16h-4l-3.28 11.83h-.06l-3.48-11.85h-4.84l-3.22 11.85h-.1l-3.5-11.85h-4.4z" fill-rule="evenodd" fill="#fff"/></svg>
